<?xml version="1.0" encoding="UTF-8" standalone="no"?><svg xmlns="http://www.w3.org/2000/svg" xmlns:xlink="http://www.w3.org/1999/xlink" contentScriptType="application/ecmascript" contentStyleType="text/css" height="511px" preserveAspectRatio="none" style="width:574px;height:511px;" version="1.1" viewBox="0 0 574 511" width="574px" zoomAndPan="magnify"><defs><filter height="300%" id="f1okbjpbkz9m94" width="300%" x="-1" y="-1"><feGaussianBlur result="blurOut" stdDeviation="2.0"/><feColorMatrix in="blurOut" result="blurOut2" type="matrix" values="0 0 0 0 0 0 0 0 0 0 0 0 0 0 0 0 0 0 .4 0"/><feOffset dx="4.0" dy="4.0" in="blurOut2" result="blurOut3"/><feBlend in="SourceGraphic" in2="blurOut3" mode="normal"/></filter></defs><g><!--MD5=[e209b37fc91f378abaa2ddf468318055]
entity actor--><ellipse cx="64" cy="14" fill="#FEFECE" filter="url(#f1okbjpbkz9m94)" rx="8" ry="8" style="stroke:#A80036;stroke-width:1.5;"/><path d="M64,22 L64,49 M51,30 L77,30 M64,49 L51,64 M64,49 L77,64 " fill="none" filter="url(#f1okbjpbkz9m94)" style="stroke:#A80036;stroke-width:1.5;"/><text fill="#000000" font-family="sans-serif" font-size="14" lengthAdjust="spacingAndGlyphs" textLength="35" x="46.5" y="82.4951">actor</text><!--MD5=[3908db504f15eb564d5f0e12bd7273c1]
entity agent--><rect fill="#FEFECE" filter="url(#f1okbjpbkz9m94)" height="36.2969" style="stroke:#A80036;stroke-width:1.5;" width="60" x="117" y="27"/><text fill="#000000" font-family="sans-serif" font-size="14" lengthAdjust="spacingAndGlyphs" textLength="40" x="127" y="49.9951">agent</text><!--MD5=[ed13bbfe61d4f4be62c09eebe4db66d3]
entity artifact--><rect fill="#FEFECE" filter="url(#f1okbjpbkz9m94)" height="39.2969" style="stroke:#000000;stroke-width:1.5;" width="76" x="212" y="25.5"/><polygon fill="#FEFECE" points="271,30.5,271,44.5,283,44.5,283,36.5,277,30.5,271,30.5" style="stroke:#000000;stroke-width:1.5;"/><line style="stroke:#000000;stroke-width:1.5;" x1="277" x2="277" y1="30.5" y2="36.5"/><line style="stroke:#000000;stroke-width:1.5;" x1="283" x2="277" y1="36.5" y2="36.5"/><text fill="#000000" font-family="sans-serif" font-size="14" lengthAdjust="spacingAndGlyphs" textLength="46" x="222" y="51.4951">artifact</text><!--MD5=[6cbf048fd2d5a055b0f2cbfd23391788]
entity boundary--><path d="M335.5,25 L335.5,49 M335.5,37 L352.5,37 " fill="none" filter="url(#f1okbjpbkz9m94)" style="stroke:#A80036;stroke-width:1.5;"/><ellipse cx="364.5" cy="37" fill="#FEFECE" filter="url(#f1okbjpbkz9m94)" rx="12" ry="12" style="stroke:#A80036;stroke-width:1.5;"/><text fill="#000000" font-family="sans-serif" font-size="14" lengthAdjust="spacingAndGlyphs" textLength="65" x="323.5" y="65.9951">boundary</text><!--MD5=[0568ea600d1c2ace8679ac75c80dfc89]
entity card--><rect fill="#FEFECE" filter="url(#f1okbjpbkz9m94)" height="22.2969" style="stroke:#000000;stroke-width:1.5;" width="50" x="424" y="34"/><text fill="#000000" font-family="sans-serif" font-size="14" lengthAdjust="spacingAndGlyphs" textLength="30" x="434" y="49.9951">card</text><!--MD5=[3a4d72efb1b53e1acbdd1189cccbc328]
entity cloud--><path d="M39.0949,155.5025 C41.4559,149.4034 47.1645,148.2045 51.2344,153.7158 C54.8758,145.821 59.116,144.8052 65.0803,151.5133 C69.3929,146.4926 75.1148,147.077 77.5918,153.5172 C82.1555,148.1672 87.4581,149.8916 90.0613,155.7067 C97.7778,157.9029 100.9459,164.8771 93.8015,170.7646 C99.7663,176.0768 99.5835,182.5086 91.605,185.7813 C89.0481,193.9294 83.9278,194.6932 77.7131,189.6266 C75.9015,196.6802 70.7965,196.7739 66.1711,192.4915 C61.0942,197.6223 54.1217,197.4871 51.8737,189.4255 C47.0728,195.4992 41.4492,192.2969 39.4313,186.5067 C30.9312,183.9799 30.2998,177.8327 35.5049,171.6772 C28.8642,165.7922 31.4472,158.2161 39.0949,155.5025 " fill="#FEFECE" filter="url(#f1okbjpbkz9m94)" style="stroke:#000000;stroke-width:1.5;"/><text fill="#000000" font-family="sans-serif" font-size="14" lengthAdjust="spacingAndGlyphs" textLength="38" x="45" y="174.4951">cloud</text><!--MD5=[5f175ec018c225c86e8e77149e6345d4]
entity component--><rect fill="#FEFECE" filter="url(#f1okbjpbkz9m94)" height="46.2969" style="stroke:#A80036;stroke-width:1.5;" width="120" x="133" y="146.5"/><rect fill="#FEFECE" height="10" style="stroke:#A80036;stroke-width:1.5;" width="15" x="233" y="151.5"/><rect fill="#FEFECE" height="2" style="stroke:#A80036;stroke-width:1.5;" width="4" x="231" y="153.5"/><rect fill="#FEFECE" height="2" style="stroke:#A80036;stroke-width:1.5;" width="4" x="231" y="157.5"/><text fill="#000000" font-family="sans-serif" font-size="14" lengthAdjust="spacingAndGlyphs" textLength="80" x="148" y="179.4951">component</text><!--MD5=[0b4603c22bc0d9214baf3db11effa15f]
entity control--><ellipse cx="312" cy="161.5" fill="#FEFECE" filter="url(#f1okbjpbkz9m94)" rx="12" ry="12" style="stroke:#A80036;stroke-width:1.5;"/><polygon fill="#A80036" points="308,149.5,314,144.5,312,149.5,314,154.5,308,149.5" style="stroke:#A80036;stroke-width:1.0;"/><text fill="#000000" font-family="sans-serif" font-size="14" lengthAdjust="spacingAndGlyphs" textLength="48" x="288" y="190.4951">control</text><!--MD5=[f50ff5e4cd64f259303fc83dba1819fc]
entity database--><path d="M371,157 C371,147 413,147 413,147 C413,147 455,147 455,157 L455,182.2969 C455,192.2969 413,192.2969 413,192.2969 C413,192.2969 371,192.2969 371,182.2969 L371,157 " fill="#FEFECE" filter="url(#f1okbjpbkz9m94)" style="stroke:#000000;stroke-width:1.5;"/><path d="M371,157 C371,167 413,167 413,167 C413,167 455,167 455,157 " fill="none" style="stroke:#000000;stroke-width:1.5;"/><text fill="#000000" font-family="sans-serif" font-size="14" lengthAdjust="spacingAndGlyphs" textLength="64" x="381" y="183.9951">database</text><!--MD5=[fbcd1a1664252f7f7ddf883fed3c1e0a]
entity entity--><ellipse cx="509" cy="161.5" fill="#FEFECE" filter="url(#f1okbjpbkz9m94)" rx="12" ry="12" style="stroke:#A80036;stroke-width:1.5;"/><line style="stroke:#A80036;stroke-width:1.5;" x1="497" x2="521" y1="175.5" y2="175.5"/><text fill="#000000" font-family="sans-serif" font-size="14" lengthAdjust="spacingAndGlyphs" textLength="38" x="490" y="190.4951">entity</text><!--MD5=[7edcefaa406c65155265f04249a95b70]
entity file--><polygon fill="#FEFECE" filter="url(#f1okbjpbkz9m94)" points="44.5,264.5,44.5,300.7969,83.5,300.7969,83.5,274.5,73.5,264.5,44.5,264.5" style="stroke:#000000;stroke-width:1.5;"/><path d="M73.5,264.5 L73.5,274.5 L83.5,274.5 " fill="#FEFECE" style="stroke:#000000;stroke-width:1.5;"/><text fill="#000000" font-family="sans-serif" font-size="14" lengthAdjust="spacingAndGlyphs" textLength="19" x="54.5" y="287.4951">file</text><!--MD5=[18b72bf5d1838316b3d85261d2b42cce]
entity folder--><polygon fill="#FEFECE" filter="url(#f1okbjpbkz9m94)" points="118.5,254.5,164.5,254.5,171.5,275.5,187.5,275.5,187.5,310.0938,118.5,310.0938,118.5,254.5" style="stroke:#000000;stroke-width:1.5;"/><line style="stroke:#000000;stroke-width:1.5;" x1="118.5" x2="171.5" y1="275.5" y2="275.5"/><text fill="#000000" font-family="sans-serif" font-size="14" lengthAdjust="spacingAndGlyphs" textLength="39" x="128.5" y="295.4951">folder</text><!--MD5=[7a641773cfca2682e51daa01eb969ffa]
entity frame--><rect fill="#FEFECE" filter="url(#f1okbjpbkz9m94)" height="46.2969" style="stroke:#000000;stroke-width:1.5;" width="79" x="222.5" y="259.5"/><path d="M248.8333,259.5 L248.8333,264.5 L241.8333,271.5 L222.5,271.5 " fill="none" style="stroke:#000000;stroke-width:1.5;"/><text fill="#000000" font-family="sans-serif" font-size="14" lengthAdjust="spacingAndGlyphs" textLength="39" x="237.5" y="292.4951">frame</text><!--MD5=[ea4128e1b5db6200a10193b8015cde63]
entity interface--><ellipse cx="375" cy="282.5" fill="#FEFECE" filter="url(#f1okbjpbkz9m94)" rx="8" ry="8" style="stroke:#A80036;stroke-width:1.5;"/><text fill="#000000" font-family="sans-serif" font-size="14" lengthAdjust="spacingAndGlyphs" textLength="60" x="345" y="312.4951">interface</text><!--MD5=[0b70d51bdd028022f5101c089cfdd98e]
entity node--><polygon fill="#FEFECE" filter="url(#f1okbjpbkz9m94)" points="448,269.5,458,259.5,524,259.5,524,295.7969,514,305.7969,448,305.7969,448,269.5" style="stroke:#000000;stroke-width:1.5;"/><line style="stroke:#000000;stroke-width:1.5;" x1="514" x2="524" y1="269.5" y2="259.5"/><line style="stroke:#000000;stroke-width:1.5;" x1="448" x2="514" y1="269.5" y2="269.5"/><line style="stroke:#000000;stroke-width:1.5;" x1="514" x2="514" y1="269.5" y2="305.7969"/><text fill="#000000" font-family="sans-serif" font-size="14" lengthAdjust="spacingAndGlyphs" textLength="36" x="463" y="292.4951">node</text><!--MD5=[18b4c220f17afa2fa1b7909f1259f27e]
entity package--><polygon fill="#FEFECE" filter="url(#f1okbjpbkz9m94)" points="16,371.5,88,371.5,95,393.7969,112,393.7969,112,410.7969,16,410.7969,16,371.5" style="stroke:#000000;stroke-width:1.5;"/><line style="stroke:#000000;stroke-width:1.5;" x1="16" x2="95" y1="393.7969" y2="393.7969"/><text fill="#000000" font-family="sans-serif" font-size="14" font-weight="bold" lengthAdjust="spacingAndGlyphs" textLength="66" x="20" y="387.4951">package</text><!--MD5=[799e9543975076390d2a6ceafec8df6c]
entity queue--><path d="M152.5,378 L207.5,378 C212.5,378 212.5,391.1484 212.5,391.1484 C212.5,391.1484 212.5,404.2969 207.5,404.2969 L152.5,404.2969 C147.5,404.2969 147.5,391.1484 147.5,391.1484 C147.5,391.1484 147.5,378 152.5,378 " fill="#FEFECE" filter="url(#f1okbjpbkz9m94)" style="stroke:#A80036;stroke-width:1.5;"/><path d="M207.5,378 C202.5,378 202.5,391.1484 202.5,391.1484 C202.5,404.2969 207.5,404.2969 207.5,404.2969 " fill="none" style="stroke:#A80036;stroke-width:1.5;"/><text fill="#000000" font-family="sans-serif" font-size="14" lengthAdjust="spacingAndGlyphs" textLength="45" x="152.5" y="395.9951">queue</text><!--MD5=[f71e1929eceb486be132a5333dc4c68d]
entity stack--><rect fill="#FEFECE" height="36.2969" style="stroke:none;stroke-width:1.5;" width="57" x="262.5" y="373"/><path d="M247.5,373 L262.5,373 L262.5,409.2969 L319.5,409.2969 L319.5,373 L334.5,373 " fill="none" filter="url(#f1okbjpbkz9m94)" style="stroke:#A80036;stroke-width:1.5;"/><text fill="#000000" font-family="sans-serif" font-size="14" lengthAdjust="spacingAndGlyphs" textLength="37" x="272.5" y="395.9951">stack</text><!--MD5=[7267aa9592867b0c03d3cbda6e92e719]
entity rectangle--><rect fill="#FEFECE" filter="url(#f1okbjpbkz9m94)" height="36.2969" style="stroke:#000000;stroke-width:1.5;" width="85" x="369.5" y="373"/><text fill="#000000" font-family="sans-serif" font-size="14" lengthAdjust="spacingAndGlyphs" textLength="65" x="379.5" y="395.9951">rectangle</text><!--MD5=[a5a6ae0ba01c8a4589ab26bd33e87aad]
entity storage--><rect fill="#FEFECE" filter="url(#f1okbjpbkz9m94)" height="36.2969" rx="35" ry="35" style="stroke:#000000;stroke-width:1.5;" width="73" x="489.5" y="373"/><text fill="#000000" font-family="sans-serif" font-size="14" lengthAdjust="spacingAndGlyphs" textLength="53" x="499.5" y="395.9951">storage</text><ellipse cx="64.2193" cy="485.0236" fill="#FEFECE" filter="url(#f1okbjpbkz9m94)" rx="44.7193" ry="14.5236" style="stroke:#A80036;stroke-width:1.5;"/><text fill="#000000" font-family="sans-serif" font-size="14" lengthAdjust="spacingAndGlyphs" textLength="59" x="34.7193" y="489.6721">usecase</text><!--MD5=[403d5c14816e3fd6c34baff245aae996]
link actor to agent--><!--MD5=[64bb286cf7260b747f34aab12634a004]
link agent to artifact--><!--MD5=[00e5dfb8e68433482ac634f71ca4cc03]
link artifact to boundary--><!--MD5=[0a1997872cb7b5dc19307073964d47e6]
link boundary to card--><!--MD5=[0bccf8e3437c5c3c7fe51f45cc386cff]
link actor to cloud--><!--MD5=[1211c5ee45ad21a71b12f86083f0d72b]
link cloud to component--><!--MD5=[4533821a253da4c88be5a6a338acd4e9]
link component to control--><!--MD5=[ee3f3e4871a542abb22ae612dc643c4d]
link control to database--><!--MD5=[db09ec649a2042184b714bedb9633c9d]
link database to entity--><!--MD5=[230daab3704eea35d9df381183ed6ee2]
link cloud to file--><!--MD5=[34c4ea2ec1a1e6d0a3a34a5ce0777fef]
link file to folder--><!--MD5=[0c6dffb2cca7298a41ee3788a177ce7f]
link folder to frame--><!--MD5=[ee194c5b89fc636fd01c768ce6f86d88]
link frame to interface--><!--MD5=[4bc6ae854b5665c09b46a881b905e5ae]
link interface to node--><!--MD5=[8940725022487ec3c89b541f5001711e]
link file to package--><!--MD5=[ee2bb58ff61a23681c57f939cb95f1e2]
link package to queue--><!--MD5=[05fc4ac20b7e99d3ec6e2a0d431387d1]
link queue to stack--><!--MD5=[c2210ea9fc6be98a62d8f4a379d6e092]
link stack to rectangle--><!--MD5=[1f2528f3aff633fef29d8d20637760c3]
link rectangle to storage--><!--MD5=[db50a773662f7ce6823dbadfa245fae0]
link package to usecase--><!--MD5=[6d0adf364dd1d61e7b14b33561a72773]
@startuml DeploymentDiagramElements
actor actor
agent agent
artifact artifact
boundary boundary
card card
cloud cloud
component component
control control
database database
entity entity
file file
folder folder
frame frame
interface  interface
node node
package package
queue queue
stack stack
rectangle rectangle
storage storage
usecase usecase
@enduml

PlantUML version 1.2020.22(Sun Dec 06 17:36:27 IRKT 2020)
(GPL source distribution)
Java Runtime: OpenJDK Runtime Environment
JVM: OpenJDK 64-Bit Server VM
Default Encoding: UTF-8
Language: en
Country: US
--></g></svg>