<?xml version="1.0" encoding="UTF-8" standalone="no"?><svg xmlns="http://www.w3.org/2000/svg" xmlns:xlink="http://www.w3.org/1999/xlink" contentScriptType="application/ecmascript" contentStyleType="text/css" height="674px" preserveAspectRatio="none" style="width:316px;height:674px;" version="1.1" viewBox="0 0 316 674" width="316px" zoomAndPan="magnify"><defs><filter height="300%" id="f196gvrjqtio3l" width="300%" x="-1" y="-1"><feGaussianBlur result="blurOut" stdDeviation="2.0"/><feColorMatrix in="blurOut" result="blurOut2" type="matrix" values="0 0 0 0 0 0 0 0 0 0 0 0 0 0 0 0 0 0 .4 0"/><feOffset dx="4.0" dy="4.0" in="blurOut2" result="blurOut3"/><feBlend in="SourceGraphic" in2="blurOut3" mode="normal"/></filter></defs><g><!--MD5=[118f42602524ad482f02b27ef22fc383]
entity D--><rect fill="#FEFECE" filter="url(#f196gvrjqtio3l)" height="36.2969" style="stroke:#000000;stroke-width:1.5;" width="31" x="273" y="103"/><text fill="#000000" font-family="sans-serif" font-size="14" lengthAdjust="spacingAndGlyphs" textLength="11" x="283" y="125.9951">D</text><!--MD5=[68f82070d0aec4ff4b64d9b1102926da]
entity E--><rect fill="#FEFECE" filter="url(#f196gvrjqtio3l)" height="36.2969" style="stroke:#000000;stroke-width:1.5;" width="29" x="209" y="103"/><text fill="#000000" font-family="sans-serif" font-size="14" lengthAdjust="spacingAndGlyphs" textLength="9" x="219" y="125.9951">E</text><!--MD5=[ce7be2ce776621b2dee39fde1aa42f50]
entity Arrows--><rect fill="#FEFECE" filter="url(#f196gvrjqtio3l)" height="36.2969" style="stroke:#000000;stroke-width:1.5;" width="67" x="87" y="7"/><text fill="#000000" font-family="sans-serif" font-size="14" lengthAdjust="spacingAndGlyphs" textLength="47" x="97" y="29.9951">Arrows</text><!--MD5=[770389ab9df153645bc6ef28055eb2b5]
entity A--><rect fill="#FEFECE" filter="url(#f196gvrjqtio3l)" height="36.2969" style="stroke:#000000;stroke-width:1.5;" width="29" x="7" y="103"/><text fill="#000000" font-family="sans-serif" font-size="14" lengthAdjust="spacingAndGlyphs" textLength="9" x="17" y="125.9951">A</text><!--MD5=[b2d39259b6aeabc16b394deeb0238426]
entity B--><rect fill="#FEFECE" filter="url(#f196gvrjqtio3l)" height="36.2969" style="stroke:#000000;stroke-width:1.5;" width="30" x="71.5" y="103"/><text fill="#000000" font-family="sans-serif" font-size="14" lengthAdjust="spacingAndGlyphs" textLength="10" x="81.5" y="125.9951">B</text><!--MD5=[16fab723be418f7eaf2ea4bd895a8e51]
entity C--><rect fill="#FEFECE" filter="url(#f196gvrjqtio3l)" height="36.2969" style="stroke:#000000;stroke-width:1.5;" width="30" x="174.5" y="626"/><text fill="#000000" font-family="sans-serif" font-size="14" lengthAdjust="spacingAndGlyphs" textLength="10" x="184.5" y="648.9951">C</text><!--MD5=[22029b2902cbfefb11350e8ee6e306b3]
entity F--><rect fill="#FEFECE" filter="url(#f196gvrjqtio3l)" height="36.2969" style="stroke:#000000;stroke-width:1.5;" width="28" x="189.5" y="7"/><text fill="#000000" font-family="sans-serif" font-size="14" lengthAdjust="spacingAndGlyphs" textLength="8" x="199.5" y="29.9951">F</text><!--MD5=[a1c8161c19cc8f16fe146c0db9f29ab1]
link Arrows to A--><path d="M96.09,43.1 C82.85,52.9 66.57,65.85 53.5,79 C47.49,85.05 41.56,92.21 36.47,98.84 " fill="none" id="Arrows-to-A" style="stroke:#A80036;stroke-width:2.0;"/><polygon fill="#A80036" points="33.42,102.89,42.02,98.09,36.42,98.89,35.62,93.29,33.42,102.89" style="stroke:#A80036;stroke-width:2.0;"/><!--MD5=[6dc99ed3574f4f0bd56a1b8cd4d55b1f]
link Arrows to C--><path d="M126.27,43.46 C135.97,74.42 154.5,141.15 154.5,199 C154.5,199 154.5,199 154.5,505 C154.5,547.12 170.01,594.3 180.38,621.15 " fill="none" id="Arrows-to-C" style="stroke:#4567FF;stroke-width:1.0;stroke-dasharray:1.0,3.0;"/><polygon fill="#4567FF" points="182.25,625.93,182.684,616.0907,180.4226,621.2759,175.2374,619.0145,182.25,625.93" style="stroke:#4567FF;stroke-width:1.0;"/><!--MD5=[209fda50c729b9460be888c17f2159be]
link Arrows to B--><path d="M114.26,43.24 C108.7,58.61 100.54,81.2 94.5,97.89 " fill="none" id="Arrows-to-B" style="stroke:#FFC0CB;stroke-width:10.0;stroke-dasharray:7.0,7.0;"/><polygon fill="#FFC0CB" points="92.7,102.87,99.5227,95.7672,94.4007,98.1681,91.9997,93.0461,92.7,102.87" style="stroke:#FFC0CB;stroke-width:10.0;"/><!--MD5=[2db381cf1937bccfdc3eba09053e0d77]
link Arrows to D--><path d="M154.04,38.14 C191.17,51.75 246.95,72.72 255.5,79 C262.7,84.29 269.21,91.51 274.51,98.42 " fill="none" id="Arrows-to-D" style="stroke:#A80036;stroke-width:1.0;"/><polygon fill="#A80036" points="277.65,102.67,275.5105,93.0563,274.6752,98.6512,269.0804,97.816,277.65,102.67" style="stroke:#A80036;stroke-width:1.0;"/><!--MD5=[72912e6cd343fd0b615113a50578b9b8]
link E to C--><path d="M223.91,139.43 C224.5,165.6 225.5,216.63 225.5,260 C225.5,260 225.5,260 225.5,505 C225.5,547.19 209.55,594.35 198.88,621.18 " fill="none" id="E-to-C" style="stroke:#A80036;stroke-width:1.0;"/><polygon fill="#A80036" points="196.96,625.95,204.06,619.1244,198.8465,621.3195,196.6513,616.106,196.96,625.95" style="stroke:#A80036;stroke-width:1.0;"/><!--MD5=[81b112816cd7e4c2936f85ef1bf8e479]
@startuml Together

rectangle Arrows
rectangle A
rectangle B
rectangle C
together {
rectangle D
rectangle E
}
rectangle F


Arrows -[bold]-> A 
Arrows -[#4567ff,dotted]-> C
Arrows -[#pink,dashed,thickness=10]-> B
Arrows - -> D
E - - - - - - - - -> C

@enduml

PlantUML version 1.2020.22(Sun Dec 06 17:36:27 IRKT 2020)
(GPL source distribution)
Java Runtime: OpenJDK Runtime Environment
JVM: OpenJDK 64-Bit Server VM
Default Encoding: UTF-8
Language: en
Country: US
--></g></svg>