<?xml version="1.0" encoding="UTF-8" standalone="no"?><svg xmlns="http://www.w3.org/2000/svg" xmlns:xlink="http://www.w3.org/1999/xlink" contentScriptType="application/ecmascript" contentStyleType="text/css" height="247px" preserveAspectRatio="none" style="width:257px;height:247px;" version="1.1" viewBox="0 0 257 247" width="257px" zoomAndPan="magnify"><defs><filter height="300%" id="f1w99o4c7nvtqe" width="300%" x="-1" y="-1"><feGaussianBlur result="blurOut" stdDeviation="2.0"/><feColorMatrix in="blurOut" result="blurOut2" type="matrix" values="0 0 0 0 0 0 0 0 0 0 0 0 0 0 0 0 0 0 .4 0"/><feOffset dx="4.0" dy="4.0" in="blurOut2" result="blurOut3"/><feBlend in="SourceGraphic" in2="blurOut3" mode="normal"/></filter></defs><g><!--MD5=[ce7be2ce776621b2dee39fde1aa42f50]
entity Arrows--><rect fill="#FEFECE" filter="url(#f1w99o4c7nvtqe)" height="36.2969" style="stroke:#000000;stroke-width:1.5;" width="67" x="87" y="103"/><text fill="#000000" font-family="sans-serif" font-size="14" lengthAdjust="spacingAndGlyphs" textLength="47" x="97" y="125.9951">Arrows</text><!--MD5=[146cded966cf13f526bfbda205ebbd3b]
entity Up--><rect fill="#FEFECE" filter="url(#f1w99o4c7nvtqe)" height="36.2969" style="stroke:#000000;stroke-width:1.5;" width="39" x="101" y="7"/><text fill="#000000" font-family="sans-serif" font-size="14" lengthAdjust="spacingAndGlyphs" textLength="19" x="111" y="29.9951">Up</text><!--MD5=[306a3c29ea203bf159aa57075b54ad07]
entity Down--><rect fill="#FEFECE" filter="url(#f1w99o4c7nvtqe)" height="36.2969" style="stroke:#000000;stroke-width:1.5;" width="60" x="90.5" y="199"/><text fill="#000000" font-family="sans-serif" font-size="14" lengthAdjust="spacingAndGlyphs" textLength="40" x="100.5" y="221.9951">Down</text><!--MD5=[111bae2713eac73fbac94f7822821f5e]
entity Left--><rect fill="#FEFECE" filter="url(#f1w99o4c7nvtqe)" height="36.2969" style="stroke:#000000;stroke-width:1.5;" width="45" x="7" y="103"/><text fill="#000000" font-family="sans-serif" font-size="14" lengthAdjust="spacingAndGlyphs" textLength="25" x="17" y="125.9951">Left</text><!--MD5=[828d9463be4a558357063ad96833d408]
entity Right--><rect fill="#FEFECE" filter="url(#f1w99o4c7nvtqe)" height="36.2969" style="stroke:#000000;stroke-width:1.5;" width="56" x="189.5" y="103"/><text fill="#000000" font-family="sans-serif" font-size="14" lengthAdjust="spacingAndGlyphs" textLength="36" x="199.5" y="125.9951">Right</text><!--MD5=[6563560ebdabcd61d81354c6df195098]
reverse link Up to Arrows--><path d="M120.5,48.66 C120.5,65.34 120.5,87.66 120.5,102.87 " fill="none" id="Up-backto-Arrows" style="stroke:#A80036;stroke-width:1.0;"/><polygon fill="#A80036" points="120.5,43.24,116.5,52.24,120.5,48.24,124.5,52.24,120.5,43.24" style="stroke:#A80036;stroke-width:1.0;"/><!--MD5=[17c8b42e5667addc36e27ac65eac1439]
link Arrows to Down--><path d="M120.5,139.24 C120.5,154.48 120.5,176.81 120.5,193.46 " fill="none" id="Arrows-to-Down" style="stroke:#A80036;stroke-width:1.0;"/><polygon fill="#A80036" points="120.5,198.87,124.5,189.87,120.5,193.87,116.5,189.87,120.5,198.87" style="stroke:#A80036;stroke-width:1.0;"/><!--MD5=[e36322a1a0ac415a6b008a6793eaa8f6]
reverse link Left to Arrows--><path d="M57.39,121 C67.23,121 77.07,121 86.91,121 " fill="none" id="Left-backto-Arrows" style="stroke:#A80036;stroke-width:1.0;"/><polygon fill="#A80036" points="52.25,121,61.25,125,57.25,121,61.25,117,52.25,121" style="stroke:#A80036;stroke-width:1.0;"/><!--MD5=[0342f50438a9ca12fb0b4a3a1e830aa0]
link Arrows to Right--><path d="M154.22,121 C164.19,121 174.15,121 184.11,121 " fill="none" id="Arrows-to-Right" style="stroke:#A80036;stroke-width:1.0;"/><polygon fill="#A80036" points="189.32,121,180.32,117,184.32,121,180.32,125,189.32,121" style="stroke:#A80036;stroke-width:1.0;"/><!--MD5=[3af29ca53ac22809555e56e3656a4e45]
@startuml LayoutUpDownLeftRight

rectangle Arrows
rectangle Up
rectangle Down
rectangle Left
rectangle Right

Arrows -u-> Up 
Arrows -d-> Down
Arrows -l-> Left
Arrows -r-> Right

@enduml

PlantUML version 1.2020.22(Sun Dec 06 17:36:27 IRKT 2020)
(GPL source distribution)
Java Runtime: OpenJDK Runtime Environment
JVM: OpenJDK 64-Bit Server VM
Default Encoding: UTF-8
Language: en
Country: US
--></g></svg>